<svg width="570" height="110" viewBox="0 0 570 110" fill="none" xmlns="http://www.w3.org/2000/svg">
<rect width="569.827" height="109.916" rx="12.89" fill="#211935"/>
<path d="M125.814 59.2042H132.029C131.863 61.4037 131.253 63.3547 130.198 65.057C129.144 66.7443 127.675 68.0701 125.792 69.0343C123.909 69.9984 121.626 70.4805 118.945 70.4805C116.881 70.4805 115.02 70.119 113.363 69.3958C111.721 68.6576 110.312 67.6106 109.137 66.2547C107.977 64.8838 107.088 63.2417 106.471 61.3284C105.853 59.4 105.544 57.2382 105.544 54.8428V52.3344C105.544 49.9391 105.86 47.7772 106.493 45.8489C107.126 43.9205 108.03 42.2784 109.205 40.9225C110.395 39.5516 111.819 38.497 113.476 37.7588C115.148 37.0206 117.016 36.6515 119.08 36.6515C121.762 36.6515 124.029 37.1487 125.882 38.143C127.735 39.1222 129.174 40.4706 130.198 42.188C131.223 43.9054 131.84 45.879 132.051 48.1086H125.837C125.716 46.7226 125.415 45.5476 124.933 44.5834C124.466 43.6192 123.758 42.8885 122.809 42.3914C121.875 41.8792 120.632 41.6231 119.08 41.6231C117.875 41.6231 116.813 41.849 115.894 42.301C114.99 42.753 114.237 43.4309 113.634 44.3348C113.032 45.2237 112.58 46.3385 112.278 47.6793C111.977 49.005 111.826 50.5417 111.826 52.2893V54.8428C111.826 56.515 111.962 58.014 112.233 59.3398C112.504 60.6655 112.926 61.7879 113.499 62.7069C114.071 63.6258 114.809 64.3264 115.713 64.8085C116.617 65.2905 117.694 65.5316 118.945 65.5316C120.466 65.5316 121.702 65.2905 122.651 64.8085C123.615 64.3264 124.346 63.6183 124.843 62.6843C125.355 61.7502 125.679 60.5902 125.814 59.2042ZM142.356 50.5718V70.0286H136.39V45.5777H142.04L142.356 50.5718ZM149.791 45.4195L149.7 50.9786C149.369 50.9183 148.992 50.8731 148.57 50.843C148.164 50.8129 147.78 50.7978 147.418 50.7978C146.499 50.7978 145.693 50.9258 145 51.182C144.307 51.423 143.727 51.777 143.26 52.2441C142.808 52.7111 142.461 53.2836 142.22 53.9615C141.979 54.6244 141.844 55.3776 141.814 56.2213L140.526 56.0631C140.526 54.5114 140.684 53.0726 141 51.7469C141.317 50.4212 141.776 49.2611 142.379 48.2668C142.981 47.2725 143.734 46.5042 144.638 45.9619C145.557 45.4044 146.612 45.1257 147.802 45.1257C148.134 45.1257 148.488 45.1559 148.864 45.2161C149.256 45.2613 149.565 45.3291 149.791 45.4195ZM163.598 70.4805C161.745 70.4805 160.08 70.1792 158.604 69.5766C157.127 68.974 155.87 68.1379 154.83 67.0682C153.806 65.9835 153.015 64.7256 152.457 63.2944C151.915 61.8481 151.644 60.2964 151.644 58.6392V57.7353C151.644 55.8522 151.915 54.1423 152.457 52.6056C153 51.0539 153.768 49.7206 154.762 48.6058C155.757 47.491 156.947 46.6323 158.333 46.0296C159.719 45.427 161.248 45.1257 162.92 45.1257C164.653 45.1257 166.182 45.4195 167.507 46.007C168.833 46.5795 169.94 47.3931 170.829 48.4476C171.718 49.5022 172.389 50.7677 172.841 52.2441C173.292 53.7054 173.518 55.3249 173.518 57.1026V59.611H154.355V55.4981H167.643V55.0462C167.613 54.0971 167.432 53.2308 167.101 52.4474C166.769 51.649 166.257 51.0162 165.564 50.5492C164.871 50.0671 163.975 49.8261 162.875 49.8261C161.986 49.8261 161.21 50.0219 160.547 50.4136C159.899 50.7903 159.357 51.3326 158.92 52.0407C158.498 52.7337 158.182 53.5623 157.971 54.5264C157.76 55.4906 157.655 56.5602 157.655 57.7353V58.6392C157.655 59.6637 157.79 60.6128 158.062 61.4866C158.348 62.3604 158.762 63.1212 159.304 63.769C159.862 64.4017 160.525 64.8989 161.293 65.2604C162.076 65.6069 162.965 65.7802 163.96 65.7802C165.21 65.7802 166.34 65.5391 167.349 65.057C168.374 64.5599 169.263 63.8292 170.016 62.865L173.021 65.9835C172.509 66.7368 171.816 67.4599 170.942 68.1529C170.084 68.8459 169.044 69.4109 167.824 69.8478C166.604 70.2696 165.195 70.4805 163.598 70.4805ZM190.987 64.8311V53.5547C190.987 52.7261 190.843 52.0105 190.557 51.4079C190.271 50.8053 189.834 50.3383 189.247 50.0069C188.659 49.6754 187.913 49.5097 187.009 49.5097C186.211 49.5097 185.51 49.6453 184.908 49.9165C184.32 50.1877 183.868 50.5718 183.552 51.069C183.236 51.5511 183.077 52.1085 183.077 52.7412H177.089C177.089 51.7318 177.33 50.7752 177.812 49.8713C178.294 48.9523 178.98 48.1388 179.868 47.4307C180.772 46.7076 181.85 46.1426 183.1 45.7359C184.365 45.3291 185.782 45.1257 187.348 45.1257C189.201 45.1257 190.851 45.4421 192.297 46.0748C193.759 46.6925 194.904 47.6266 195.732 48.877C196.576 50.1274 196.998 51.7017 196.998 53.5999V64.2661C196.998 65.4864 197.073 66.5334 197.224 67.4072C197.389 68.2659 197.63 69.0117 197.947 69.6444V70.0286H191.868C191.582 69.4109 191.363 68.6275 191.213 67.6784C191.062 66.7142 190.987 65.7651 190.987 64.8311ZM191.823 55.1366L191.868 58.6844H188.094C187.16 58.6844 186.339 58.7824 185.631 58.9782C184.923 59.159 184.343 59.4302 183.891 59.7917C183.439 60.1382 183.1 60.5601 182.874 61.0572C182.648 61.5393 182.535 62.0892 182.535 62.7069C182.535 63.3095 182.671 63.8518 182.942 64.3339C183.228 64.816 183.635 65.2002 184.162 65.4864C184.704 65.7576 185.337 65.8932 186.06 65.8932C187.115 65.8932 188.034 65.6822 188.817 65.2604C189.601 64.8235 190.211 64.2962 190.648 63.6786C191.085 63.0609 191.318 62.4733 191.348 61.9159L193.066 64.4921C192.855 65.1098 192.538 65.7651 192.116 66.4581C191.695 67.1511 191.152 67.7989 190.489 68.4015C189.827 69.0041 189.028 69.5013 188.094 69.893C187.16 70.2847 186.075 70.4805 184.84 70.4805C183.258 70.4805 181.842 70.1642 180.592 69.5314C179.341 68.8987 178.354 68.0324 177.631 66.9327C176.908 65.8329 176.547 64.5825 176.547 63.1814C176.547 61.8858 176.788 60.7408 177.27 59.7465C177.752 58.7522 178.467 57.9161 179.416 57.2382C180.366 56.5452 181.541 56.0254 182.942 55.6789C184.358 55.3174 185.977 55.1366 187.8 55.1366H191.823ZM213.946 45.5777V49.8713H199.935V45.5777H213.946ZM203.687 39.5667H209.675V62.978C209.675 63.7012 209.773 64.2586 209.969 64.6503C210.165 65.042 210.458 65.3056 210.85 65.4412C211.242 65.5768 211.709 65.6446 212.251 65.6446C212.643 65.6446 213.004 65.622 213.336 65.5768C213.667 65.5316 213.946 65.4864 214.172 65.4412L214.195 69.9156C213.697 70.0813 213.132 70.2169 212.5 70.3223C211.882 70.4278 211.182 70.4805 210.398 70.4805C209.057 70.4805 207.882 70.2545 206.873 69.8026C205.864 69.3356 205.08 68.5898 204.523 67.5654C203.965 66.5259 203.687 65.155 203.687 63.4526V39.5667ZM228.906 70.4805C227.053 70.4805 225.388 70.1792 223.912 69.5766C222.435 68.974 221.177 68.1379 220.138 67.0682C219.113 65.9835 218.322 64.7256 217.765 63.2944C217.223 61.8481 216.952 60.2964 216.952 58.6392V57.7353C216.952 55.8522 217.223 54.1423 217.765 52.6056C218.307 51.0539 219.076 49.7206 220.07 48.6058C221.064 47.491 222.254 46.6323 223.64 46.0296C225.026 45.427 226.556 45.1257 228.228 45.1257C229.96 45.1257 231.489 45.4195 232.815 46.007C234.141 46.5795 235.248 47.3931 236.137 48.4476C237.026 49.5022 237.696 50.7677 238.148 52.2441C238.6 53.7054 238.826 55.3249 238.826 57.1026V59.611H219.663V55.4981H232.951V55.0462C232.921 54.0971 232.74 53.2308 232.408 52.4474C232.077 51.649 231.565 51.0162 230.872 50.5492C230.179 50.0671 229.282 49.8261 228.183 49.8261C227.294 49.8261 226.518 50.0219 225.855 50.4136C225.207 50.7903 224.665 51.3326 224.228 52.0407C223.806 52.7337 223.49 53.5623 223.279 54.5264C223.068 55.4906 222.963 56.5602 222.963 57.7353V58.6392C222.963 59.6637 223.098 60.6128 223.369 61.4866C223.656 62.3604 224.07 63.1212 224.612 63.769C225.17 64.4017 225.832 64.8989 226.601 65.2604C227.384 65.6069 228.273 65.7802 229.267 65.7802C230.518 65.7802 231.648 65.5391 232.657 65.057C233.681 64.5599 234.57 63.8292 235.324 62.865L238.329 65.9835C237.817 66.7368 237.124 67.4599 236.25 68.1529C235.391 68.8459 234.352 69.4109 233.132 69.8478C231.911 70.2696 230.503 70.4805 228.906 70.4805ZM281.242 37.1261V70.0286H275.005L261.017 47.2047V70.0286H254.803V37.1261H261.017L275.051 59.9725V37.1261H281.242ZM298.1 70.4805C296.247 70.4805 294.583 70.1792 293.106 69.5766C291.63 68.974 290.372 68.1379 289.332 67.0682C288.308 65.9835 287.517 64.7256 286.96 63.2944C286.417 61.8481 286.146 60.2964 286.146 58.6392V57.7353C286.146 55.8522 286.417 54.1423 286.96 52.6056C287.502 51.0539 288.27 49.7206 289.265 48.6058C290.259 47.491 291.449 46.6323 292.835 46.0296C294.221 45.427 295.75 45.1257 297.422 45.1257C299.155 45.1257 300.684 45.4195 302.01 46.007C303.336 46.5795 304.443 47.3931 305.332 48.4476C306.221 49.5022 306.891 50.7677 307.343 52.2441C307.795 53.7054 308.021 55.3249 308.021 57.1026V59.611H288.858V55.4981H302.145V55.0462C302.115 54.0971 301.935 53.2308 301.603 52.4474C301.272 51.649 300.759 51.0162 300.066 50.5492C299.373 50.0671 298.477 49.8261 297.377 49.8261C296.488 49.8261 295.713 50.0219 295.05 50.4136C294.402 50.7903 293.86 51.3326 293.423 52.0407C293.001 52.7337 292.684 53.5623 292.474 54.5264C292.263 55.4906 292.157 56.5602 292.157 57.7353V58.6392C292.157 59.6637 292.293 60.6128 292.564 61.4866C292.85 62.3604 293.264 63.1212 293.807 63.769C294.364 64.4017 295.027 64.8989 295.795 65.2604C296.579 65.6069 297.468 65.7802 298.462 65.7802C299.712 65.7802 300.842 65.5391 301.852 65.057C302.876 64.5599 303.765 63.8292 304.518 62.865L307.524 65.9835C307.011 66.7368 306.318 67.4599 305.445 68.1529C304.586 68.8459 303.546 69.4109 302.326 69.8478C301.106 70.2696 299.697 70.4805 298.1 70.4805ZM318.823 64.1531L324.178 45.5777H327.975L326.845 51.9955L321.444 70.0286H318.167L318.823 64.1531ZM315.862 45.5777L319.885 64.1983L320.246 70.0286H316.472L310.055 45.5777H315.862ZM332.946 63.9271L336.878 45.5777H342.663L336.291 70.0286H332.517L332.946 63.9271ZM328.562 45.5777L333.873 63.9723L334.573 70.0286H331.297L325.851 51.9955L324.743 45.5777H328.562ZM370.82 58.0291H362.346V53.148H370.82C372.206 53.148 373.329 52.922 374.187 52.47C375.061 52.003 375.701 51.3703 376.108 50.5718C376.515 49.7583 376.718 48.8318 376.718 47.7923C376.718 46.7829 376.515 45.8413 376.108 44.9675C375.701 44.0938 375.061 43.3857 374.187 42.8433C373.329 42.301 372.206 42.0298 370.82 42.0298H364.38V70.0286H358.166V37.1261H370.82C373.381 37.1261 375.566 37.5856 377.374 38.5046C379.197 39.4085 380.583 40.6664 381.532 42.2784C382.496 43.8753 382.978 45.6982 382.978 47.7471C382.978 49.8713 382.496 51.7017 381.532 53.2384C380.583 54.775 379.197 55.9576 377.374 56.7862C375.566 57.6148 373.381 58.0291 370.82 58.0291ZM393.373 50.5718V70.0286H387.407V45.5777H393.057L393.373 50.5718ZM400.808 45.4195L400.717 50.9786C400.386 50.9183 400.009 50.8731 399.587 50.843C399.181 50.8129 398.796 50.7978 398.435 50.7978C397.516 50.7978 396.71 50.9258 396.017 51.182C395.324 51.423 394.744 51.777 394.277 52.2441C393.825 52.7111 393.478 53.2836 393.237 53.9615C392.996 54.6244 392.861 55.3776 392.831 56.2213L391.543 56.0631C391.543 54.5114 391.701 53.0726 392.017 51.7469C392.333 50.4212 392.793 49.2611 393.396 48.2668C393.998 47.2725 394.751 46.5042 395.655 45.9619C396.574 45.4044 397.629 45.1257 398.819 45.1257C399.15 45.1257 399.504 45.1559 399.881 45.2161C400.273 45.2613 400.582 45.3291 400.808 45.4195ZM402.389 58.0517V57.5771C402.389 55.7844 402.646 54.1347 403.158 52.6282C403.67 51.1066 404.416 49.7884 405.395 48.6736C406.374 47.5588 407.572 46.6925 408.988 46.0748C410.404 45.4421 412.016 45.1257 413.824 45.1257C415.662 45.1257 417.289 45.4421 418.705 46.0748C420.136 46.6925 421.342 47.5588 422.321 48.6736C423.3 49.7884 424.046 51.1066 424.558 52.6282C425.07 54.1347 425.326 55.7844 425.326 57.5771V58.0517C425.326 59.8294 425.07 61.479 424.558 63.0006C424.046 64.5072 423.3 65.8254 422.321 66.9553C421.342 68.0701 420.144 68.9363 418.728 69.554C417.312 70.1717 415.692 70.4805 413.869 70.4805C412.061 70.4805 410.442 70.1717 409.011 69.554C407.579 68.9363 406.374 68.0701 405.395 66.9553C404.416 65.8254 403.67 64.5072 403.158 63.0006C402.646 61.479 402.389 59.8294 402.389 58.0517ZM408.355 57.5771V58.0517C408.355 59.1213 408.461 60.1232 408.672 61.0572C408.883 61.9913 409.207 62.8123 409.643 63.5204C410.08 64.2284 410.645 64.7859 411.338 65.1926C412.046 65.5843 412.89 65.7802 413.869 65.7802C414.833 65.7802 415.662 65.5843 416.355 65.1926C417.048 64.7859 417.613 64.2284 418.05 63.5204C418.502 62.8123 418.833 61.9913 419.044 61.0572C419.255 60.1232 419.36 59.1213 419.36 58.0517V57.5771C419.36 56.5226 419.255 55.5358 419.044 54.6168C418.833 53.6828 418.502 52.8617 418.05 52.1537C417.613 51.4305 417.04 50.8656 416.332 50.4588C415.639 50.037 414.803 49.8261 413.824 49.8261C412.86 49.8261 412.031 50.037 411.338 50.4588C410.645 50.8656 410.08 51.4305 409.643 52.1537C409.207 52.8617 408.883 53.6828 408.672 54.6168C408.461 55.5358 408.355 56.5226 408.355 57.5771ZM429.959 45.5777H435.97V71.8364C435.97 73.5689 435.654 75.0378 435.021 76.243C434.403 77.4482 433.507 78.3596 432.332 78.9773C431.157 79.595 429.718 79.9038 428.015 79.9038C427.488 79.9038 426.961 79.8737 426.434 79.8134C425.906 79.7532 425.387 79.6552 424.874 79.5197L424.897 74.9097C425.228 74.97 425.567 75.0152 425.914 75.0453C426.26 75.0905 426.607 75.1131 426.953 75.1131C427.601 75.1131 428.144 75.0001 428.58 74.7741C429.032 74.5481 429.371 74.1941 429.597 73.712C429.838 73.2299 429.959 72.6047 429.959 71.8364V45.5777ZM429.462 39.1825C429.462 38.2936 429.763 37.5555 430.366 36.9679C430.983 36.3804 431.812 36.0866 432.851 36.0866C433.891 36.0866 434.712 36.3804 435.315 36.9679C435.932 37.5555 436.241 38.2936 436.241 39.1825C436.241 40.0563 435.932 40.7869 435.315 41.3745C434.712 41.962 433.891 42.2558 432.851 42.2558C431.812 42.2558 430.983 41.962 430.366 41.3745C429.763 40.7869 429.462 40.0563 429.462 39.1825ZM452.489 70.4805C450.636 70.4805 448.971 70.1792 447.495 69.5766C446.018 68.974 444.76 68.1379 443.721 67.0682C442.697 65.9835 441.906 64.7256 441.348 63.2944C440.806 61.8481 440.535 60.2964 440.535 58.6392V57.7353C440.535 55.8522 440.806 54.1423 441.348 52.6056C441.891 51.0539 442.659 49.7206 443.653 48.6058C444.647 47.491 445.838 46.6323 447.224 46.0296C448.61 45.427 450.139 45.1257 451.811 45.1257C453.543 45.1257 455.073 45.4195 456.398 46.007C457.724 46.5795 458.831 47.3931 459.72 48.4476C460.609 49.5022 461.279 50.7677 461.731 52.2441C462.183 53.7054 462.409 55.3249 462.409 57.1026V59.611H443.246V55.4981H456.534V55.0462C456.504 54.0971 456.323 53.2308 455.992 52.4474C455.66 51.649 455.148 51.0162 454.455 50.5492C453.762 50.0671 452.866 49.8261 451.766 49.8261C450.877 49.8261 450.101 50.0219 449.438 50.4136C448.79 50.7903 448.248 51.3326 447.811 52.0407C447.389 52.7337 447.073 53.5623 446.862 54.5264C446.651 55.4906 446.546 56.5602 446.546 57.7353V58.6392C446.546 59.6637 446.681 60.6128 446.952 61.4866C447.239 62.3604 447.653 63.1212 448.195 63.769C448.753 64.4017 449.416 64.8989 450.184 65.2604C450.967 65.6069 451.856 65.7802 452.85 65.7802C454.101 65.7802 455.231 65.5391 456.24 65.057C457.265 64.5599 458.153 63.8292 458.907 62.865L461.912 65.9835C461.4 66.7368 460.707 67.4599 459.833 68.1529C458.975 68.8459 457.935 69.4109 456.715 69.8478C455.494 70.2696 454.086 70.4805 452.489 70.4805ZM476.443 65.7802C477.286 65.7802 478.04 65.6145 478.702 65.283C479.365 64.9516 479.893 64.4846 480.284 63.8819C480.691 63.2793 480.909 62.5788 480.94 61.7803H486.566C486.536 63.4375 486.069 64.9215 485.165 66.2321C484.262 67.5428 483.056 68.5823 481.55 69.3506C480.058 70.1039 478.386 70.4805 476.533 70.4805C474.65 70.4805 473.008 70.1642 471.607 69.5314C470.206 68.8987 469.038 68.0174 468.104 66.8875C467.185 65.7576 466.492 64.4469 466.025 62.9554C465.573 61.464 465.347 59.8671 465.347 58.1647V57.4416C465.347 55.7392 465.573 54.1423 466.025 52.6508C466.492 51.1594 467.185 49.8487 468.104 48.7188C469.038 47.5889 470.206 46.7076 471.607 46.0748C473.008 45.4421 474.642 45.1257 476.51 45.1257C478.484 45.1257 480.216 45.5099 481.708 46.2782C483.214 47.0465 484.39 48.1312 485.233 49.5323C486.092 50.9334 486.536 52.583 486.566 54.4812H480.94C480.909 53.6075 480.714 52.8241 480.352 52.1311C479.991 51.4381 479.478 50.8807 478.815 50.4588C478.153 50.037 477.347 49.8261 476.397 49.8261C475.388 49.8261 474.544 50.037 473.866 50.4588C473.204 50.8807 472.684 51.4607 472.307 52.1989C471.946 52.922 471.69 53.7355 471.539 54.6394C471.403 55.5283 471.336 56.4623 471.336 57.4416V58.1647C471.336 59.159 471.403 60.1081 471.539 61.012C471.69 61.9159 471.946 62.7295 472.307 63.4526C472.684 64.1607 473.204 64.7256 473.866 65.1474C474.544 65.5693 475.403 65.7802 476.443 65.7802ZM502.114 45.5777V49.8713H488.103V45.5777H502.114ZM491.854 39.5667H497.843V62.978C497.843 63.7012 497.941 64.2586 498.137 64.6503C498.332 65.042 498.626 65.3056 499.018 65.4412C499.41 65.5768 499.877 65.6446 500.419 65.6446C500.811 65.6446 501.172 65.622 501.504 65.5768C501.835 65.5316 502.114 65.4864 502.34 65.4412L502.362 69.9156C501.865 70.0813 501.3 70.2169 500.668 70.3223C500.05 70.4278 499.349 70.4805 498.566 70.4805C497.225 70.4805 496.05 70.2545 495.041 69.8026C494.031 69.3356 493.248 68.5898 492.69 67.5654C492.133 66.5259 491.854 65.155 491.854 63.4526V39.5667Z" fill="#F8F8F8"/>
<path d="M55.8806 70.7186H61.4663V59.5484H72.6376V53.9633H61.4663V42.7931H55.8806V53.9633H44.7093V59.5484H55.8806V70.7186ZM58.6734 84.6814C54.81 84.6814 51.1793 83.9478 47.7814 82.4808C44.3834 81.0138 41.4277 79.0246 38.9141 76.5131C36.4006 73.9998 34.4112 71.0444 32.9459 67.6468C31.4806 64.2492 30.747 60.6189 30.7451 56.7558C30.7451 52.8928 31.4787 49.2625 32.9459 45.8649C34.413 42.4673 36.4025 39.5118 38.9141 36.9985C41.4277 34.4852 44.3834 32.496 47.7814 31.0309C51.1793 29.5657 54.81 28.8322 58.6734 28.8303C62.5368 28.8303 66.1675 29.5638 69.5655 31.0309C72.9634 32.4979 75.9192 34.4871 78.4327 36.9985C80.9463 39.5118 82.9366 42.4673 84.4038 45.8649C85.8709 49.2625 86.6036 52.8928 86.6017 56.7558C86.6017 60.6189 85.8681 64.2492 84.401 67.6468C82.9338 71.0444 80.9444 73.9998 78.4327 76.5131C75.9192 79.0264 72.9634 81.0166 69.5655 82.4836C66.1675 83.9506 62.5368 84.6832 58.6734 84.6814Z" fill="#F8F8F8"/>
</svg>
